# xmcd CD database file
#
# Track frame offsets:
#	150
#	24707
#	38455
#	61235
#	82332
#	103205
#	126865
#	146240
#	169470
#	193162
#
# Disc length: 2853 seconds
#
# Revision: 7
# Processed by: cddbd v1.5PL3 Copyright (c) Steve Scherf et al.
# Submitted via: CDex 1.40Release
#
DISCID=960b230a
DTITLE=中島みゆき - はじめまして
DYEAR=1986
DGENRE=JPop
TTITLE0=僕は青い鳥
TTITLE1=幸福論
TTITLE2=ひとり
TTITLE3=生まれた時から
TTITLE4=彼女によろしく
TTITLE5=不良
TTITLE6=シニカル・ムーン
TTITLE7=春までなんぼ
TTITLE8=僕たちの将来
TTITLE9=はじめまして
EXTD=
EXTT0=
EXTT1=
EXTT2=
EXTT3=
EXTT4=
EXTT5=
EXTT6=
EXTT7=
EXTT8=
EXTT9=
PLAYORDER=
